<?xml version="1.0" encoding="UTF-8"?><svg id="uuid-df801fe3-9388-431a-985d-db99c936530d" xmlns="http://www.w3.org/2000/svg" width="438.5" height="204.9" viewBox="0 0 438.5 204.9"><g id="uuid-295b4e49-ce6c-4d8f-adea-7782384d8ee6"><path d="m437.2,20.6l-27.2-11.7c-16.5-7.1-38-7.1-54.5,0h0c-16.5,7.1-38,7.1-54.5,0h0c-16.5-7.1-38-7.1-54.5,0h0c-16.5,7.1-38,7.1-54.5,0h0c-16.5-7.1-38-7.1-54.5,0h0c-16.5,7.1-38,7.1-54.5,0h0c-16.5-7.1-38-7.1-54.5,0L1.4,20.6" fill="none" stroke="#000" stroke-miterlimit="10" stroke-width="7"/><path d="m437.2,56.8l-27.2-11.7c-16.5-7.1-38-7.1-54.5,0h0c-16.5,7.1-38,7.1-54.5,0h0c-16.5-7.1-38-7.1-54.5,0h0c-16.5,7.1-38,7.1-54.5,0h0c-16.5-7.1-38-7.1-54.5,0h0c-16.5,7.1-38,7.1-54.5,0h0c-16.5-7.1-38-7.1-54.5,0L1.4,56.8" fill="none" stroke="#000" stroke-miterlimit="10" stroke-width="7"/><path d="m437.2,93l-27.2-11.7c-16.5-7.1-38-7.1-54.5,0h0c-16.5,7.1-38,7.1-54.5,0h0c-16.5-7.1-38-7.1-54.5,0h0c-16.5,7.1-38,7.1-54.5,0h0c-16.5-7.1-38-7.1-54.5,0h0c-16.5,7.1-38,7.1-54.5,0h0c-16.5-7.1-38-7.1-54.5,0L1.4,93" fill="none" stroke="#000" stroke-miterlimit="10" stroke-width="7"/><path d="m437.2,129.2l-27.2-11.7c-16.5-7.1-38-7.1-54.5,0h0c-16.5,7.1-38,7.1-54.5,0h0c-16.5-7.1-38-7.1-54.5,0h0c-16.5,7.1-38,7.1-54.5,0h0c-16.5-7.1-38-7.1-54.5,0h0c-16.5,7.1-38,7.1-54.5,0h0c-16.5-7.1-38-7.1-54.5,0l-27.2,11.7" fill="none" stroke="#000" stroke-miterlimit="10" stroke-width="7"/><path d="m437.2,165.5l-27.2-11.7c-16.5-7.1-38-7.1-54.5,0h0c-16.5,7.1-38,7.1-54.5,0h0c-16.5-7.1-38-7.1-54.5,0h0c-16.5,7.1-38,7.1-54.5,0h0c-16.5-7.1-38-7.1-54.5,0h0c-16.5,7.1-38,7.1-54.5,0h0c-16.5-7.1-38-7.1-54.5,0l-27.2,11.7" fill="none" stroke="#000" stroke-miterlimit="10" stroke-width="7"/><path d="m437.2,201.7l-27.2-11.7c-16.5-7.1-38-7.1-54.5,0h0c-16.5,7.1-38,7.1-54.5,0h0c-16.5-7.1-38-7.1-54.5,0h0c-16.5,7.1-38,7.1-54.5,0h0c-16.5-7.1-38-7.1-54.5,0h0c-16.5,7.1-38,7.1-54.5,0h0c-16.5-7.1-38-7.1-54.5,0l-27.2,11.7" fill="none" stroke="#000" stroke-miterlimit="10" stroke-width="7"/></g></svg>